<svg width="512" height="512" viewBox="0 0 512 512" fill="none" xmlns="http://www.w3.org/2000/svg">
<rect x="10.5" y="10.5" width="491" height="491" rx="59.5" fill="black"/>
<rect x="10.5" y="10.5" width="491" height="491" rx="59.5" stroke="white" stroke-width="21"/>
<path d="M88.0229 173.36V69.7589H94.6598V173.36H88.0229ZM110.362 100.839C109.876 96.7384 107.907 93.5548 104.453 91.2886C101 89.0223 96.7642 87.8891 91.746 87.8891C88.0768 87.8891 84.8663 88.4827 82.1144 89.6698C79.3894 90.8569 77.2581 92.4891 75.7202 94.5666C74.2094 96.644 73.454 99.0047 73.454 101.649C73.454 103.861 73.9801 105.763 75.0323 107.355C76.1114 108.92 77.4874 110.228 79.1601 111.28C80.8328 112.306 82.5865 113.155 84.4211 113.83C86.2557 114.477 87.9419 115.004 89.4798 115.408L97.8974 117.674C100.056 118.241 102.457 119.023 105.101 120.022C107.772 121.02 110.321 122.382 112.75 124.109C115.205 125.809 117.228 127.994 118.82 130.665C120.412 133.336 121.208 136.614 121.208 140.499C121.208 144.978 120.034 149.025 117.687 152.64C115.367 156.255 111.967 159.128 107.489 161.26C103.037 163.391 97.6276 164.457 91.2604 164.457C85.3249 164.457 80.1853 163.499 75.8416 161.584C71.5249 159.668 68.1255 156.997 65.6434 153.571C63.1883 150.144 61.7988 146.165 61.4751 141.632H71.8352C72.105 144.762 73.1572 147.352 74.9918 149.402C76.8534 151.426 79.2006 152.937 82.0334 153.935C84.8933 154.906 87.9689 155.392 91.2604 155.392C95.0915 155.392 98.5314 154.771 101.58 153.53C104.629 152.262 107.043 150.509 108.824 148.269C110.605 146.003 111.495 143.359 111.495 140.337C111.495 137.585 110.726 135.346 109.188 133.619C107.65 131.893 105.627 130.49 103.118 129.411C100.609 128.331 97.8974 127.387 94.9836 126.578L84.7853 123.664C78.3103 121.802 73.1842 119.145 69.407 115.691C65.6299 112.238 63.7413 107.719 63.7413 102.134C63.7413 97.4938 64.9959 93.4469 67.505 89.9935C70.0411 86.5132 73.4405 83.8152 77.7032 81.8997C81.993 79.9572 86.7818 78.9859 92.0698 78.9859C97.4117 78.9859 102.16 79.9437 106.315 81.8592C110.47 83.7478 113.761 86.3378 116.189 89.6293C118.645 92.9208 119.94 96.6575 120.074 100.839H110.362ZM149.196 53.4094V189.71H141.102V53.4094H149.196Z" fill="#3EFF25"/>
</svg>
